:version 1.10
:name ASF
:units
  mass 1
  length 1
  angle deg
:documentation
  ASF file generated by Kaydara
:root
  axis xyz
  order  tx ty tz rx ry rz
  position 0 0 0
  orientation 0 0 0
:bonedata
  begin
    id 1
    name RightUpLegDummy
    direction -0.65628 -0.754516 0.00165102
    length 4.76918
    axis 0 0 0 xyz
  end
  begin
    id 2
    name RightUpLeg
    direction -0.145584 -0.923362 0.355256
    length 17.9961
    axis -24.7611 -13.1006 1.78531 xyz
    dof rx ry rz
  end
  begin
    id 3
    name RightLeg
    direction 0.263379 0.172355 -0.949171
    length 13.3386
    axis 89.6202 -21.1929 12.3855 xyz
    dof rx ry rz
  end
  begin
    id 4
    name RightFoot
    direction 0.224283 -0.968777 -0.105675
    length 5.86697
    axis 56.995 -39.6905 17.3365 xyz
    dof rx ry rz
  end
  begin
    id 5
    name RightToes
    direction -0.0806345 -0.9037 0.420506
    length 4.75197
    axis 146.825 -39.7828 17.6019 xyz
    dof rx ry rz
  end
  begin
    id 6
    name SpineDummy
    direction -3.39852e-014 1 9.33296e-014
    length 8.13779
    axis 0 0 0 xyz
  end
  begin
    id 7
    name Spine
    direction -0.156609 0.733703 0.661176
    length 7.14978
    axis 41.2365 5.68757 17.0844 xyz
    dof rx ry rz
  end
  begin
    id 8
    name Spine1
    direction 0 0 0
    length 0
    axis 42.8809 47.8308 -3.36039 xyz
    dof rx ry rz
  end
  begin
    id 9
    name HEadDummy
    direction 0.546431 0.701947 0.456819
    length 3.55512
    axis 42.8809 47.8308 -3.36039 xyz
  end
  begin
    id 10
    name HEad
    direction 0.23444 0.828559 0.508457
    length 7.35827
    axis 51.1864 49.2662 27.4903 xyz
    dof rx ry rz
  end
  begin
    id 11
    name LeftShoulder1Dummy
    direction 0.431183 0.475873 -0.766568
    length 2.49352
    axis 42.8809 47.8308 -3.36039 xyz
  end
  begin
    id 12
    name LeftShoulder1
    direction 0.268187 -0.383402 -0.883786
    length 4.48604
    axis -119.517 0.106469 35.1736 xyz
    dof rx ry rz
  end
  begin
    id 13
    name LeftArm
    direction 0.380567 -0.703221 -0.600541
    length 10.1142
    axis -5.41825 36.2925 7.8293 xyz
    dof rx ry rz
  end
  begin
    id 14
    name LeftForeArm
    direction 0.541071 -0.732356 -0.413396
    length 9.39839
    axis 4.65387 33.7604 7.81644 xyz
    dof rx ry rz
  end
  begin
    id 15
    name LeftHand
    direction 0.847511 -0.389379 -0.360707
    length 3.66142
    axis 7.65593 21.1436 -24.6758 xyz
    dof rx ry rz
  end
  begin
    id 16
    name RightShoulderDummy
    direction -0.692546 0.541855 0.476208
    length 2.49352
    axis 42.8809 47.8308 -3.36039 xyz
  end
  begin
    id 17
    name RightShoulder
    direction -0.870808 -0.316653 0.376065
    length 4.48602
    axis 141.571 51.133 -100.254 xyz
    dof rx ry rz
  end
  begin
    id 18
    name RightArm
    direction 0.366897 -0.87275 0.322015
    length 10.1142
    axis 92.3258 71.2036 138.917 xyz
    dof rx ry rz
  end
  begin
    id 19
    name RightForeArm
    direction 0.702487 -0.694568 0.155197
    length 9.39835
    axis 153.863 41.5092 -176.604 xyz
    dof rx ry rz
  end
  begin
    id 20
    name RightHand
    direction 0.79502 -0.601276 0.0800636
    length 3.66142
    axis 154.247 4.59222 142.9 xyz
    dof rx ry rz
  end
  begin
    id 21
    name LeftUpLegDummy
    direction 0.65628 -0.754516 0.00165102
    length 4.76919
    axis 0 0 0 xyz
  end
  begin
    id 22
    name LeftUpLeg
    direction -0.1277 -0.689368 0.713067
    length 17.9961
    axis -48.3385 -17.8675 0.791927 xyz
    dof rx ry rz
  end
  begin
    id 23
    name LeftLeg
    direction 0.109849 -0.991246 -0.0732378
    length 13.3386
    axis -2.05791 -7.30784 1.72042 xyz
    dof rx ry rz
  end
  begin
    id 24
    name LeftFoot
    direction 0.0448355 -0.272614 0.961078
    length 5.86697
    axis -18.7733 -7.89606 10.2113 xyz
    dof rx ry rz
  end
  begin
    id 25
    name LeftToes
    direction -0.18506 0.293668 0.937823
    length 4.75197
    axis 71.2267 -7.89606 10.2113 xyz
    dof rx ry rz
  end
:hierarchy
  begin
    root RightUpLegDummy SpineDummy LeftUpLegDummy
    RightUpLegDummy RightUpLeg
    RightUpLeg RightLeg
    RightLeg RightFoot
    RightFoot RightToes
    SpineDummy Spine
    Spine Spine1
    Spine1 HEadDummy LeftShoulder1Dummy RightShoulderDummy
    HEadDummy HEad
    LeftShoulder1Dummy LeftShoulder1
    LeftShoulder1 LeftArm
    LeftArm LeftForeArm
    LeftForeArm LeftHand
    RightShoulderDummy RightShoulder
    RightShoulder RightArm
    RightArm RightForeArm
    RightForeArm RightHand
    LeftUpLegDummy LeftUpLeg
    LeftUpLeg LeftLeg
    LeftLeg LeftFoot
    LeftFoot LeftToes
  end

:SAMPLES-PER-SECOND 30
:FULLY-SPECIFIED
:DEGREES
486
root  -25.2525 33.5833 31.5045 -179.618 -42.1327 171.462
RightUpLeg  -15.1637 4.01375 22.2327
RightLeg  -63.0944 -25.8832 14.6514
RightFoot  13.561 19.4596 -40.9732
RightToes  -1.27222e-014 -6.36111e-015 6.36111e-015
Spine  -28.8814 -27.2394 -9.24541
Spine1  -7.20547 -21.4509 55.6481
HEad  -29.3823 -21.5328 -12.7934
LeftShoulder1  6.36111e-015 -1.33558e-015 6.49777e-015
LeftArm  8.98618 -13.589 48.3724
LeftForeArm  -5.61822 -31.4275 1.48981
LeftHand  0.923103 4.08964 -5.44066
RightShoulder  -4.77083e-015 -6.36111e-015 -3.18055e-015
RightArm  93.9223 24.1933 -83.3817
RightForeArm  -21.839 -26.4728 -2.59702
RightHand  -0.0830769 2.42599 -3.08683
LeftUpLeg  50.4479 23.2954 24.494
LeftLeg  43.6235 -0.12834 5.66473
LeftFoot  16.7522 8.93081 -19.2661
LeftToes  1.27222e-014 -5.20697e-012 1.80337e-011
487
root  -24.8089 33.5086 31.8866 -178.988 -44.7735 171.373
RightUpLeg  -17.0861 3.103 21.5699
RightLeg  -64.3402 -26.0785 15.6335
RightFoot  14.997 19.5225 -40.6223
RightToes  -1.27222e-014 -6.36111e-015 6.36111e-015
Spine  -29.2366 -27.6196 -10.2382
Spine1  -6.62412 -21.1257 57.0676
HEad  -28.0101 -23.6386 -15.1124
LeftShoulder1  6.36111e-015 -1.33558e-015 6.49777e-015
LeftArm  9.52473 -11.8925 47.0169
LeftForeArm  -16.594 -43.7994 10.2937
LeftHand  -0.0417537 1.65583 -6.94661
RightShoulder  -4.77083e-015 -6.36111e-015 -3.18055e-015
RightArm  97.4543 18.8267 -78.1523
RightForeArm  -23.3825 -25.2479 -2.8984
RightHand  -0.552311 4.1606 -1.81418
LeftUpLeg  54.1326 21.6283 26.5302
LeftLeg  39.9025 0.858829 6.06827
LeftFoot  18.0297 8.82336 -18.5146
LeftToes  1.27222e-014 -5.20697e-012 1.80337e-011
488
root  -23.9645 34.2379 32.5429 -176.593 -46.2977 170.448
RightUpLeg  -17.8586 3.44127 20.5372
RightLeg  -71.8061 -23.4906 17.1414
RightFoot  20.8124 21.462 -42.0032
RightToes  -1.27222e-014 -6.36111e-015 6.36111e-015
Spine  -29.7284 -27.6724 -11.483
Spine1  -6.26422 -20.4967 57.4517
HEad  -26.9736 -26.2027 -15.9557
LeftShoulder1  6.36111e-015 -1.33558e-015 6.49777e-015
LeftArm  13.9425 -11.6289 40.7229
LeftForeArm  -35.6519 -51.0542 25.7602
LeftHand  -0.841718 -0.516547 -8.25206
RightShoulder  -4.77083e-015 -6.36111e-015 -3.18055e-015
RightArm  98.8628 8.08495 -73.1973
RightForeArm  -24.8547 -23.7601 -3.41452
RightHand  -0.89741 5.52027 -0.763445
LeftUpLeg  56.212 21.5582 27.291
LeftLeg  32.0852 0.749609 4.51799
LeftFoot  18.2727 8.91694 -18.6093
LeftToes  1.27222e-014 -5.20697e-012 1.80337e-011
489
root  -22.6879 35.7453 33.4934 -172.871 -47.949 169.189
RightUpLeg  -17.6277 4.56767 18.5195
RightLeg  -82.8094 -16.5713 11.9754
RightFoot  35.0789 22.7261 -39.6189
RightToes  -1.27222e-014 -6.36111e-015 6.36111e-015
Spine  -30.6744 -27.2979 -11.86
Spine1  -5.464 -20.1762 57.3591
HEad  -25.7071 -28.9406 -16.5185
LeftShoulder1  6.36111e-015 -1.33558e-015 6.49777e-015
LeftArm  19.5706 -12.1923 29.2353
LeftForeArm  -52.9114 -52.1391 39.1622
LeftHand  -0.948828 -0.749339 -8.72586
RightShoulder  -4.77083e-015 -6.36111e-015 -3.18055e-015
RightArm  96.4863 -6.0949 -65.9996
RightForeArm  -24.1759 -21.7985 -4.2198
RightHand  -0.954368 5.86357 -0.839636
LeftUpLeg  55.0005 22.0016 24.2442
LeftLeg  21.5196 -0.746713 2.0577
LeftFoot  16.0144 8.49012 -18.635
LeftToes  1.27222e-014 -5.20697e-012 1.80337e-011
490
root  -21.2803 37.2146 34.6368 -168.227 -50.0833 166.986
RightUpLeg  -16.7406 6.67756 14.6548
RightLeg  -93.6494 -11.825 0.774552
RightFoot  51.116 16.4166 -30.0756
RightToes  -1.27222e-014 -6.36111e-015 6.36111e-015
Spine  -31.2203 -26.9498 -12.2449
Spine1  -4.67208 -19.8888 58.0038
HEad  -21.2258 -31.4548 -20.1422
LeftShoulder1  6.36111e-015 -1.33558e-015 6.49777e-015
LeftArm  23.9593 -12.332 12.7076
LeftForeArm  -58.5901 -51.9842 43.7583
LeftHand  -1.19627 -1.54965 -8.76014
RightShoulder  -4.77083e-015 -6.36111e-015 -3.18055e-015
RightArm  88.7657 -19.074 -53.1899
RightForeArm  -21.7648 -19.8731 -4.99094
RightHand  -0.682838 4.85674 -1.84859
LeftUpLeg  51.6926 21.5948 16.8311
LeftLeg  11.1792 -3.29264 0.0848131
LeftFoot  8.89876 6.69208 -17.4526
LeftToes  1.27222e-014 -5.20697e-012 1.80337e-011
491
root  -19.9108 38.0138 35.8406 -164.451 -51.3853 164.9
RightUpLeg  -16.5471 12.772 10.2746
RightLeg  -96.0778 -10.9469 -2.8369
RightFoot  51.935 6.42124 -21.0448
RightToes  -1.27222e-014 -6.36111e-015 6.36111e-015
Spine  -30.2402 -25.7504 -12.5727
Spine1  -5.04112 -18.8033 58.1157
HEad  -15.105 -34.0862 -24.5064
LeftShoulder1  6.36111e-015 -1.33558e-015 6.49777e-015
LeftArm  25.5498 -12.3834 -5.64849
LeftForeArm  -52.2161 -53.3001 40.4699
LeftHand  -1.92686 -3.83207 -9.44955
RightShoulder  -4.77083e-015 -6.36111e-015 -3.18055e-015
RightArm  76.497 -25.3999 -34.4049
RightForeArm  -19.863 -17.7896 -5.71703
RightHand  -0.348473 3.68765 -2.98359
LeftUpLeg  47.8379 19.8433 8.72757
LeftLeg  3.94533 -6.43891 -0.967562
LeftFoot  -0.764296 4.52741 -15.5605
LeftToes  1.27222e-014 -5.20697e-012 1.80337e-011
492
root  -18.5406 38.1818 36.9961 -162.967 -50.5325 164.464
RightUpLeg  -17.6397 16.8224 9.2217
RightLeg  -83.9103 -12.6685 -0.324479
RightFoot  38.5605 3.90239 -17.3176
RightToes  -1.27222e-014 -6.36111e-015 6.36111e-015
Spine  -27.5457 -23.3195 -12.6035
Spine1  -6.32155 -17.0279 55.1985
HEad  -12.1535 -37.4034 -24.7447
LeftShoulder1  6.36111e-015 -1.33558e-015 6.49777e-015
LeftArm  25.5484 -12.5424 -21.2293
LeftForeArm  -39.9273 -54.8556 33.0019
LeftHand  -2.60184 -5.97173 -10.7244
RightShoulder  -4.77083e-015 -6.36111e-015 -3.18055e-015
RightArm  63.4895 -23.2678 -16.2809
RightForeArm  -19.1427 -14.1241 -7.09731
RightHand  0.00227622 2.8587 -4.73455
LeftUpLeg  43.4703 18.4573 4.30325
LeftLeg  0.804551 -9.4319 -1.38763
LeftFoot  -7.41078 3.28077 -14.2401
LeftToes  1.27222e-014 -5.20697e-012 1.80337e-011
493
root  -17.1953 37.5796 38.0359 -161.946 -48.0187 163.738
RightUpLeg  -17.8014 19.8637 9.71221
RightLeg  -64.5264 -18.6857 6.04471
RightFoot  25.0548 6.07761 -18.3957
RightToes  -1.27222e-014 -6.36111e-015 6.36111e-015
Spine  -23.7936 -22.1987 -14.0543
Spine1  -6.74999 -16.0214 48.6152
HEad  -15.5438 -40.9669 -18.7588
LeftShoulder1  6.36111e-015 -1.33558e-015 6.49777e-015
LeftArm  25.0231 -11.2822 -31.1549
LeftForeArm  -29.7748 -55.5022 26.4693
LeftHand  -2.91513 -7.00926 -11.6186
RightShoulder  -4.77083e-015 -6.36111e-015 -3.18055e-015
RightArm  51.3064 -15.906 -5.12103
RightForeArm  -18.9428 -9.31381 -9.1169
RightHand  0.479346 1.86572 -7.01621
LeftUpLeg  37.7759 19.3328 3.51771
LeftLeg  2.95073 -10.6162 -1.64255
LeftFoot  -11.1895 2.62096 -13.3104
LeftToes  1.27222e-014 -5.20697e-012 1.80337e-011
494
root  -15.7416 36.513 39.1159 -160.266 -45.2256 162.28
RightUpLeg  -15.4611 21.2715 10.2623
RightLeg  -44.0673 -27.7719 7.73694
RightFoot  19.37 7.32084 -19.6575
RightToes  -1.27222e-014 -6.36111e-015 6.36111e-015
Spine  -20.5659 -21.5602 -15.2655
Spine1  -4.13201 -15.8156 40.1837
HEad  -23.5598 -44.0411 -9.21502
LeftShoulder1  6.36111e-015 -1.33558e-015 6.49777e-015
LeftArm  24.3521 -8.41761 -35.401
LeftForeArm  -26.4911 -55.6443 24.3576
LeftHand  -2.92587 -7.06773 -11.1679
RightShoulder  -4.77083e-015 -6.36111e-015 -3.18055e-015
RightArm  38.9945 -7.82926 -1.50034
RightForeArm  -19.1832 -5.07923 -11.1482
RightHand  0.784317 1.4615 -8.76824
LeftUpLeg  30.9274 21.3072 3.52692
LeftLeg  7.88317 -8.53317 -1.40757
LeftFoot  -15.1857 2.10149 -12.9743
LeftToes  1.27222e-014 -5.20697e-012 1.80337e-011
495
root  -14.3334 35.3399 40.128 -157.694 -43.0126 160.288
RightUpLeg  -9.21658 20.3641 9.76861
RightLeg  -23.4739 -32.1981 2.67731
RightFoot  17.0187 7.55076 -19.8075
RightToes  -1.27222e-014 -6.36111e-015 6.36111e-015
Spine  -19.4168 -19.9626 -14.6016
Spine1  0.748362 -15.0467 30.7277
HEad  -30.8477 -48.0719 -1.28366
LeftShoulder1  6.36111e-015 -1.33558e-015 6.49777e-015
LeftArm  24.7771 -6.42663 -36.5131
LeftForeArm  -28.8509 -54.5988 24.9862
LeftHand  -2.83808 -6.83548 -9.75706
RightShoulder  -4.77083e-015 -6.36111e-015 -3.18055e-015
RightArm  27.275 -2.70217 -4.00876
RightForeArm  -20.7161 -1.4047 -13.4456
RightHand  0.736639 1.93893 -9.40157
LeftUpLeg  24.5343 22.8757 2.40621
LeftLeg  12.4587 -5.58879 -0.544157
LeftFoot  -21.5873 1.49194 -14.0541
LeftToes  1.27222e-014 -5.20697e-012 1.80337e-011
496
root  -13.0344 34.216 40.9203 -154.378 -41.1442 157.811
RightUpLeg  1.22451 18.1275 7.2205
RightLeg  -8.12898 -32.1753 -2.1597
RightFoot  15.26 7.9986 -20.4071
RightToes  -1.27222e-014 -6.36111e-015 6.36111e-015
Spine  -19.6787 -17.7036 -13.9961
Spine1  6.30026 -12.8537 21.3629
HEad  -37.5224 -53.7459 5.57837
LeftShoulder1  6.36111e-015 -1.33558e-015 6.49777e-015
LeftArm  26.1045 -6.14505 -36.4561
LeftForeArm  -32.8686 -51.2523 24.2829
LeftHand  -2.73333 -6.53172 -8.99921
RightShoulder  -4.77083e-015 -6.36111e-015 -3.18055e-015
RightArm  18.3358 -1.33066 -9.87736
RightForeArm  -25.0421 1.81375 -16.6163
RightHand  0.600665 2.45197 -9.37525
LeftUpLeg  18.5343 24.0267 0.534513
LeftLeg  16.483 -4.10656 0.160447
LeftFoot  -28.3462 0.755579 -15.984
LeftToes  1.27222e-014 -5.20697e-012 1.80337e-011
497
root  -11.817 33.5746 41.3123 -152.035 -39.5673 155.757
RightUpLeg  14.3923 16.7812 3.16884
RightLeg  -2.37168 -32.3783 -3.8992
RightFoot  15.9204 8.59321 -21.4719
RightToes  -1.27222e-014 -6.36111e-015 6.36111e-015
Spine  -19.8683 -14.9342 -14.554
Spine1  10.5766 -9.42384 15.7677
HEad  -43.8504 -59.2982 12.26
LeftShoulder1  6.36111e-015 -1.33558e-015 6.49777e-015
LeftArm  27.1352 -4.99508 -35.1249
LeftForeArm  -38.2761 -46.9233 22.6689
LeftHand  -2.60919 -6.13646 -8.86806
RightShoulder  -4.77083e-015 -6.36111e-015 -3.18055e-015
RightArm  13.4178 -1.39604 -15.3779
RightForeArm  -31.718 4.07529 -20.2606
RightHand  0.351256 3.20391 -8.8534
LeftUpLeg  14.3494 24.9997 0.026059
LeftLeg  18.5238 -4.07251 0.259775
LeftFoot  -30.7616 0.448085 -17.2266
LeftToes  1.27222e-014 -5.20697e-012 1.80337e-011
498
root  -10.8258 33.5121 41.1432 -152.274 -38.5443 154.783
RightUpLeg  28.6235 17.2598 -0.964149
RightLeg  -6.22409 -34.6439 -2.81119
RightFoot  18.2767 8.80212 -21.9526
RightToes  -1.27222e-014 -6.36111e-015 6.36111e-015
Spine  -19.4238 -12.278 -15.5007
Spine1  11.7078 -6.53086 14.9679
HEad  -45.5729 -63.538 15.5394
LeftShoulder1  6.36111e-015 -1.33558e-015 6.49777e-015
LeftArm  28.3115 -1.67715 -32.2369
LeftForeArm  -47.1998 -44.4284 23.7136
LeftHand  -2.72287 -6.51911 -8.63741
RightShoulder  -4.77083e-015 -6.36111e-015 -3.18055e-015
RightArm  11.8837 -1.23595 -17.3299
RightForeArm  -37.8435 6.25439 -24.1051
RightHand  -0.329777 5.03436 -6.38944
LeftUpLeg  14.5949 25.7986 1.93902
LeftLeg  18.2748 -5.46333 -0.430543
LeftFoot  -29.4386 0.663114 -17.8394
LeftToes  1.27222e-014 -5.20697e-012 1.80337e-011
